<svg width="128" height="128" viewBox="0 0 128 128" fill="none" xmlns="http://www.w3.org/2000/svg">
<path fill-rule="evenodd" clip-rule="evenodd" d="M87.8534 110.954C103.428 102.484 114 85.9765 114 67C114 39.3858 91.6142 17 64 17C36.3858 17 14 39.3858 14 67C14 86.1348 24.7486 102.759 40.5374 111.164L48.328 102.568C50.76 105.256 53.416 107.24 56.296 108.52C59.24 109.8 62.216 110.44 65.224 110.44C68.68 110.44 71.304 109.672 73.096 108.136C74.888 106.6 75.784 104.392 75.784 101.512C75.784 99.144 75.08 97.352 73.672 96.136C72.328 94.92 70.024 94.056 66.76 93.544L59.752 92.392C53.736 91.368 49.384 89.16 46.696 85.768C44.008 82.312 42.664 78.12 42.664 73.192C42.664 66.728 44.776 61.736 49 58.216C53.224 54.632 59.144 52.84 66.76 52.84C71.944 52.84 76.456 53.64 80.296 55.24C84.136 56.84 87.24 59.016 89.608 61.768L81.448 70.888C79.656 68.904 77.544 67.368 75.112 66.28C72.68 65.128 69.928 64.552 66.856 64.552C60.392 64.552 57.16 67.208 57.16 72.52C57.16 74.824 57.864 76.552 59.272 77.704C60.744 78.856 63.112 79.72 66.376 80.296L73.384 81.544C78.824 82.504 83.016 84.552 85.96 87.688C88.904 90.824 90.376 95.048 90.376 100.36C90.376 103.496 89.832 106.408 88.744 109.096C88.4793 109.734 88.1825 110.354 87.8534 110.954Z" fill="url(#paint0_linear_5_2)"/>
<defs>
<linearGradient id="paint0_linear_5_2" x1="64" y1="117" x2="64" y2="17" gradientUnits="userSpaceOnUse">
<stop stop-color="#0766FF"/>
<stop offset="1" stop-color="#26B5FF"/>
</linearGradient>
</defs>
</svg>
